<?xml version="1.0" standalone="no"?>
<!DOCTYPE svg PUBLIC "-//W3C//DTD SVG 20010904//EN"
 "http://www.w3.org/TR/2001/REC-SVG-20010904/DTD/svg10.dtd">
<svg version="1.0" xmlns="http://www.w3.org/2000/svg"
 width="512.000000pt" height="512.000000pt" viewBox="0 0 512.000000 512.000000"
 preserveAspectRatio="xMidYMid meet">
<metadata>
Created by potrace 1.14, written by Peter Selinger 2001-2017
</metadata>
<g transform="translate(0.000000,512.000000) scale(0.100000,-0.100000)"
fill="#000000" stroke="none">
<path d="M649 4745 c-107 -29 -194 -97 -241 -190 -50 -96 -48 -14 -45 -2020
l2 -1880 32 -67 c40 -85 106 -151 191 -191 l67 -32 1885 -2 c1592 -2 1892 -1
1931 11 145 44 237 139 275 281 20 74 20 3736 0 3810 -38 144 -137 243 -281
281 -72 20 -3746 19 -3816 -1z m723 -371 c78 -26 139 -64 203 -129 94 -94 138
-204 139 -345 0 -116 -28 -205 -93 -290 -41 -55 -124 -134 -141 -135 -3 0 -16
-8 -30 -17 -55 -35 -132 -52 -235 -51 -147 2 -244 42 -341 139 -102 104 -145
201 -149 345 -6 175 80 336 232 432 40 25 140 64 183 70 51 8 185 -3 232 -19z
m2677 1 c216 -72 358 -277 346 -502 -7 -127 -50 -225 -143 -320 -94 -97 -192
-141 -332 -148 -143 -7 -266 41 -369 145 -135 136 -185 344 -122 509 10 28 16
51 13 51 -4 0 -2 4 3 8 6 4 19 23 29 42 60 107 203 207 331 230 64 11 188 4
244 -15z m-2696 -1336 c115 -29 255 -142 310 -249 72 -143 69 -335 -9 -473
-14 -26 -51 -73 -83 -105 -100 -102 -202 -145 -346 -146 -146 -2 -251 42 -355
146 -92 93 -133 179 -145 308 -8 80 13 186 52 267 33 67 129 168 200 208 104
58 252 76 376 44z m2698 -4 c79 -26 135 -62 202 -129 101 -101 149 -227 142
-373 -7 -132 -50 -227 -149 -326 -100 -100 -198 -140 -351 -140 -140 -1 -245
42 -342 140 -107 109 -155 232 -148 382 5 124 71 263 157 333 22 18 49 41 60
50 89 76 298 106 429 63z m-2733 -1329 c117 -24 178 -59 270 -154 136 -141
167 -371 74 -560 -32 -65 -130 -168 -196 -205 -144 -80 -329 -84 -476 -10 -59
30 -156 121 -193 181 -61 97 -89 248 -66 362 54 267 320 442 587 386z m2730
-10 c163 -54 286 -184 333 -351 22 -77 16 -217 -11 -290 -13 -33 -33 -76 -45
-95 -21 -33 -105 -123 -136 -145 -114 -82 -277 -112 -420 -75 -113 29 -243
129 -304 237 -61 107 -79 285 -40 398 51 150 169 266 325 320 3 1 12 4 20 8
50 20 208 16 278 -7z"/>
</g>
</svg>
